<?xml version="1.0" standalone="no"?>
<!DOCTYPE svg PUBLIC "-//W3C//DTD SVG 20010904//EN"
 "http://www.w3.org/TR/2001/REC-SVG-20010904/DTD/svg10.dtd">
<svg version="1.0" xmlns="http://www.w3.org/2000/svg"
 width="50.000000pt" height="50.000000pt" viewBox="0 0 50.000000 50.000000"
 preserveAspectRatio="xMidYMid meet">

<g transform="translate(0.000000,50.000000) scale(0.100000,-0.100000)"
fill="#000000" stroke="none">
<path d="M390 490 c0 -5 20 -10 45 -10 43 0 45 -1 45 -30 0 -23 -4 -30 -20
-30 -11 0 -20 -4 -20 -10 0 -5 9 -10 20 -10 16 0 20 -7 20 -30 0 -23 -4 -30
-20 -30 -11 0 -20 -4 -20 -10 0 -5 9 -10 20 -10 16 0 20 -7 20 -30 0 -29 -2
-30 -45 -30 -25 0 -45 -4 -45 -10 0 -5 20 -10 45 -10 43 0 45 -1 45 -30 0 -23
-4 -30 -20 -30 -11 0 -20 -4 -20 -10 0 -5 9 -10 20 -10 16 0 20 -7 20 -30 0
-23 -4 -30 -20 -30 -11 0 -20 -4 -20 -10 0 -5 9 -10 20 -10 16 0 20 -7 20 -30
0 -29 -2 -30 -45 -30 -25 0 -45 -4 -45 -10 0 -5 25 -10 55 -10 l55 0 0 250 0
250 -55 0 c-30 0 -55 -4 -55 -10z"/>
<path d="M100 388 c-1 -24 -10 -68 -21 -98 -11 -30 -26 -80 -32 -111 -8 -37
-16 -54 -24 -52 -20 7 -15 -12 7 -32 19 -17 21 -17 40 0 24 22 26 40 4 31 -15
-6 -16 0 -10 40 3 25 15 67 27 92 24 55 38 172 20 172 -6 0 -11 -17 -11 -42z"/>
<path d="M210 388 c-1 -24 -10 -68 -21 -98 -11 -30 -26 -80 -32 -111 -8 -37
-16 -54 -24 -52 -20 7 -15 -12 7 -32 19 -17 21 -17 40 0 24 22 26 40 4 31 -15
-6 -16 0 -10 40 3 25 15 67 27 92 24 55 38 172 20 172 -6 0 -11 -17 -11 -42z"/>
<path d="M320 388 c-1 -24 -10 -68 -21 -98 -11 -30 -26 -80 -32 -111 -8 -37
-16 -54 -24 -52 -20 7 -15 -12 7 -32 19 -17 21 -17 40 0 24 22 26 40 4 31 -15
-6 -16 0 -10 40 3 25 15 67 27 92 24 55 38 172 20 172 -6 0 -11 -17 -11 -42z"/>
</g>
</svg>
